# Exported from Wings 3D 0.98.36
mtllib toilets.mtl
o toilet_paper
#22 vertices, 15 faces
v 0.77039000 0.74599000 -8.0000000e-3
v 0.75217000 0.74599000 -5.1970000e-2
v 0.70020000 0.74599000 -7.3500000e-2
v 0.64823000 0.74599000 -5.1970000e-2
v 0.62670000 0.74599000 0.0000000e+0
v 0.64823000 0.74599000 5.1970000e-2
v 0.70020000 0.74599000 7.3500000e-2
v 0.75217000 0.74599000 5.1970000e-2
v 0.77039000 0.57349000 -8.0000000e-3
v 0.75217000 0.57349000 -5.1970000e-2
v 0.70020000 0.57349000 -7.3500000e-2
v 0.64823000 0.57349000 -5.1970000e-2
v 0.62670000 0.57349000 0.0000000e+0
v 0.64823000 0.57349000 5.1970000e-2
v 0.70020000 0.57349000 7.3500000e-2
v 0.75217000 0.57349000 5.1970000e-2
v 0.77039000 0.74599000 8.0000000e-3
v 0.77039000 0.57349000 8.0000000e-3
v 0.78826000 0.74599000 4.9260000e-2
v 0.78826000 0.57349000 4.9260000e-2
v 0.79303000 0.57349000 3.9290000e-2
v 0.79303000 0.74599000 3.9290000e-2
vt 7.6276930e-3 0.27159044
vt 6.3124586e-2 0.81157600
vt 6.3866586e-2 0.81375711
vt 8.7337975e-2 0.35006374
vt 0.10872819 0.70149613
vt 0.10872819 0.92165586
vt 0.10947019 0.70367724
vt 0.10947019 0.92383698
vt 0.15961728 0.42134419
vt 0.21880806 0.65589252
vt 0.21880806 0.96725947
vt 0.21955006 0.65807363
vt 0.21955006 0.96944058
vt 0.24495784 0.50552509
vt 0.26581238 9.3359739e-3
vt 0.32888793 0.70149613
vt 0.32888793 0.92165586
vt 0.32962993 0.70367724
vt 0.32962993 0.92383698
vt 0.33007255 0.58931048
vt 0.34582834 8.8148614e-2
vt 0.36748049 0.79463086
vt 0.36748049 0.82852114
vt 0.36822249 0.79681197
vt 0.36822249 0.83070225
vt 0.41488242 0.67287350
vt 0.41829027 0.15986061
vt 0.49914442 0.75601763
vt 0.50341765 0.24487252
vt 0.58296252 0.83909787
vt 0.58809216 0.32981968
vt 0.66626048 0.92244473
vt 0.67224571 0.41431761
vt 0.73655488 0.99312569
vt 0.75609435 0.49860984
vt 0.78922930 3.8937684e-2
vt 0.78922930 0.43125548
vt 0.82032809 5.2406789e-2
vt 0.82032809 0.41778638
vt 0.83970184 0.58251335
vt 0.90020443 0.43545064
vt 0.90020443 3.4742528e-2
vt 0.91556738 5.2406789e-2
vt 0.91556738 0.41778638
vt 0.92321627 0.66634340
vt 0.93897777 5.2406789e-2
vt 0.93897777 0.41778638
vt 0.99379695 0.73732055
vn 0.64563058 0.70723407 -0.28806445
vn 0.62185593 0.47594859 -0.62190686
vn 2.6421724e-16 0.47597147 -0.87946072
vn -0.62187901 0.47595483 -0.62187901
vn -0.87946072 0.47597147 0.0000000e+0
vn -0.62187901 0.47595483 0.62187901
vn 4.7559103e-16 0.47597147 0.87946072
vn 0.62185593 0.47594859 0.62190686
vn 0.64563058 -0.70723407 -0.28806445
vn 0.62185593 -0.47594859 -0.62190686
vn 2.6421724e-16 -0.47597147 -0.87946072
vn -0.62187901 -0.47595483 -0.62187901
vn -0.87946072 -0.47597147 5.2843448e-17
vn -0.62187901 -0.47595483 0.62187901
vn 4.7559103e-16 -0.47597147 0.87946072
vn 0.62185593 -0.47594859 0.62190686
vn 2.8861204e-3 0.93161248 0.36344167
vn 2.8861204e-3 -0.93161248 0.36344167
vn -1.1976805e-2 0.76979809 0.63817510
vn -1.1976805e-2 -0.76979809 0.63817510
vn 0.87461837 -0.48481202 -1.1131318e-4
vn 0.87461837 0.48481202 -1.1131318e-4
g toilet_paper_toilet_paper_auv
usemtl toilet_paper_auv
f 1/4/1 9/21/9 10/27/10 2/9/2
f 1/4/1 22/1/22 21/15/21 9/21/9
f 2/19/2 3/13/3 4/8/4 5/3/5 6/7/6 7/12/7 8/18/8 17/24/17 1/25/1
f 2/9/2 10/27/10 11/29/11 3/14/3
f 3/14/3 11/29/11 12/31/12 4/20/4
f 4/20/4 12/31/12 13/33/13 5/26/5
f 5/26/5 13/33/13 14/35/14 6/28/6
f 6/28/6 14/35/14 15/40/15 7/30/7
f 7/30/7 15/40/15 16/45/16 8/32/8
f 9/23/9 18/22/18 16/16/16 15/10/15 14/5/14 13/2/13 12/6/12 11/11/11 10/17/10
f 9/36/9 21/42/21 20/43/20 18/38/18
f 16/45/16 18/48/18 17/34/17 8/32/8
f 17/39/17 19/44/19 22/41/22 1/37/1
f 18/38/18 20/43/20 19/44/19 17/39/17
f 20/43/20 21/46/21 22/47/22 19/44/19
o toilet_door
#32 vertices, 26 faces
v 1.42006000 0.24773000 0.42993000
v 1.42006000 1.95504000 0.42993000
v 0.59525000 1.83947000 0.42993000
v 0.59525000 0.14772000 0.42993000
v 0.59525000 0.14772000 0.50839000
v 1.42006000 0.24773000 0.50839000
v 1.42006000 1.95504000 0.50839000
v 0.59525000 1.83947000 0.50839000
v 1.21386000 1.88875000 0.42993000
v 1.00766000 1.85611000 0.42993000
v 0.80146000 1.83303000 0.42993000
v 0.80146000 0.17008000 0.42993000
v 1.00766000 0.14256000 0.42993000
v 1.21386000 0.24773000 0.42993000
v 1.21386000 1.88875000 0.50839000
v 1.00766000 1.85611000 0.50839000
v 0.80146000 1.83303000 0.50839000
v 0.80146000 0.17008000 0.50839000
v 1.00766000 0.14256000 0.50839000
v 1.21386000 0.24773000 0.50839000
v 1.00766000 1.34038000 0.50839000
v 1.00766000 1.50368000 0.50839000
v 1.21386000 1.43342000 0.50839000
v 0.80146000 1.43342000 0.50839000
v 1.21386000 1.43342000 0.42993000
v 0.80146000 1.43342000 0.42993000
v 1.00766000 1.34038000 0.42993000
v 1.00766000 1.50368000 0.42993000
v 1.09647000 1.42772000 0.50839000
v 0.91884000 1.42772000 0.50839000
v 1.09647000 1.42772000 0.42993000
v 0.91884000 1.42772000 0.42993000
vt 0.57899437 0.57666956
vt 0.57914784 0.92281943
vt 0.57932101 0.93847294
vt 0.58032114 0.56098585
vt 0.62064379 0.93809741
vt 0.62130237 0.58104775
vt 0.62135793 0.83976324
vt 0.62137332 0.92203059
vt 0.62170523 0.56450374
vt 0.64542077 0.83860195
vt 0.66176382 0.94203228
vt 0.66307130 0.57635892
vt 0.66360966 0.85413612
vt 0.66361639 0.82063534
vt 0.66377365 0.92641964
vt 0.66557114 0.56202201
vt 0.68186277 0.83852230
vt 0.70244019 0.94869802
vt 0.70549442 0.59642895
vt 0.70592291 0.83964400
vt 0.70604482 0.93321570
vt 0.70913441 0.58048638
vt 0.74387241 0.96129318
vt 0.74776076 0.59691668
vt 0.74839116 0.58200715
vt 0.74840608 0.94631158
vt 0.77366553 0.94549986
vt 0.77436435 0.59638872
vt 0.78970904 0.94553198
vt 0.79040787 0.59642084
vt 0.83190000 0.93206139
vt 0.83208637 0.83895540
vt 0.83257170 0.59650524
vt 0.84082248 0.97117357
vt 0.84082272 0.95512976
vt 0.85609264 0.83783791
vt 0.86471925 0.95512968
vt 0.86471946 0.97117366
vt 0.87407718 0.92547155
vt 0.87422144 0.85340658
vt 0.87428828 0.82001496
vt 0.87477857 0.57508445
vt 0.89019063 0.95512908
vt 0.89019068 0.97117263
vt 0.89241447 0.83791062
vt 0.91566146 0.97117310
vt 0.91566159 0.95512998
vt 0.91625045 0.92083655
vt 0.91641402 0.83912420
vt 0.91693113 0.58079615
vt 0.93955891 0.95512976
vt 0.93955923 0.97117306
vt 0.95841369 0.92223781
vt 0.95910615 0.57630838
vt 0.97445721 0.92226992
vt 0.97514966 0.57634049
vn 0.57735027 -0.57735027 -0.57735027
vn 0.44907306 0.61607867 -0.64713249
vn -0.56524050 0.58316871 -0.58345303
vn -0.53468253 -0.59579398 -0.59928635
vn -0.53468253 -0.59579398 0.59928635
vn 0.57735027 -0.57735027 0.57735027
vn 0.44907306 0.61607867 0.64713249
vn -0.56524050 0.58316871 0.58345303
vn -0.16372682 0.68681052 -0.70815594
vn -9.4616712e-2 0.70065551 -0.70719837
vn -2.8327510e-2 0.70563731 -0.70800674
vn -8.6893288e-3 -0.70448212 -0.70966854
vn 0.11647462 -0.68063844 -0.72330144
vn 0.16287643 -0.67782077 -0.71695904
vn -0.16372682 0.68681052 0.70815594
vn -9.4616712e-2 0.70065551 0.70719837
vn -2.8327510e-2 0.70563731 0.70800674
vn -8.6893288e-3 -0.70448212 0.70966854
vn 0.11647462 -0.68063844 0.72330144
vn 0.16287643 -0.67782077 0.71695904
vn -1.6339154e-5 0.58054620 0.81422731
vn -1.6825528e-5 -0.60506451 0.79617645
vn -1.2995501e-16 0.0000000e+0 1.00000000
vn 2.3473683e-16 0.0000000e+0 1.00000000
vn -1.3614566e-16 0.0000000e+0 -1.00000000
vn 3.8010049e-17 0.0000000e+0 -1.00000000
vn -1.6339154e-5 0.58054620 -0.81422731
vn -1.6825528e-5 -0.60506451 -0.79617645
vn -0.55969964 -1.9453192e-2 0.82846719
vn 0.55967621 -1.9452189e-2 0.82848304
vn -0.55969964 -1.9453192e-2 -0.82846719
vn 0.55967621 -1.9452189e-2 -0.82848304
g toilet_door_toilet_door_auv
usemtl toilet_door_auv
f 23/78/23 36/81/36 47/80/47 31/79/31 24/77/24
f 24/77/24 29/75/29 28/76/28 23/78/23
f 24/71/24 31/66/31 37/69/37 29/74/29
f 25/101/25 33/96/33 48/97/48 34/98/34 26/102/26
f 26/102/26 27/104/27 30/103/30 25/101/25
f 26/52/26 34/57/34 40/54/40 27/49/27
f 27/49/27 40/54/40 46/55/46 39/56/39 30/50/30
f 28/72/28 42/67/42 36/70/36 23/73/23
f 29/74/29 37/69/37 45/68/45 42/67/42 28/72/28
f 30/50/30 39/56/39 33/53/33 25/51/25
f 31/79/31 47/80/47 53/84/53 50/88/50 32/87/32
f 32/59/32 38/63/38 37/69/37 31/66/31
f 32/87/32 50/88/50 54/93/54 48/97/48 33/96/33
f 33/53/33 39/56/39 38/63/38 32/59/32
f 34/98/34 48/97/48 54/93/54 49/89/49 35/90/35
f 35/64/35 41/60/41 40/54/40 34/57/34
f 35/90/35 49/89/49 53/84/53 47/80/47 36/81/36
f 36/70/36 42/67/42 41/60/41 35/64/35
f 38/63/38 44/61/44 51/65/51 45/68/45 37/69/37
f 39/56/39 46/55/46 52/58/52 44/61/44 38/63/38
f 41/60/41 43/62/43 52/58/52 46/55/46 40/54/40
f 42/67/42 45/68/45 51/65/51 43/62/43 41/60/41
f 43/92/43 51/86/51 53/85/53 49/91/49
f 44/100/44 52/94/52 54/95/54 50/99/50
f 49/91/49 54/95/54 52/94/52 43/92/43
f 50/83/50 53/85/53 51/86/51 44/82/44
o highpoly_toilet
#50 vertices, 37 faces
v 1.50751000 8.4600000e-3 -0.49915000
v 1.50751000 2.25888000 -0.49915000
v 0.50920000 2.25888000 -0.49915000
v 0.50920000 8.4600000e-3 -0.49915000
v 0.50920000 8.4600000e-3 0.49915000
v 1.50751000 8.4600000e-3 0.49915000
v 1.50751000 2.00932000 0.49915000
v 0.50920000 2.00932000 0.49915000
v 0.40644000 2.28425000 -0.60066000
v 0.40644000 1.96688000 0.66893000
v 1.61026000 1.96688000 0.66893000
v 1.61026000 2.28425000 -0.60066000
v 1.61026000 2.36479000 -0.58053000
v 1.61026000 2.04742000 0.68907000
v 0.40644000 2.04742000 0.68907000
v 0.40644000 2.36479000 -0.58053000
v 1.41096000 2.00932000 0.49915000
v 0.60575000 2.00932000 0.49915000
v 0.60575000 8.4600000e-3 0.49915000
v 1.41096000 8.4600000e-3 0.49915000
v 0.60575000 2.21365000 -0.45173000
v 1.41096000 2.21365000 -0.45173000
v 0.60575000 0.57192000 0.49915000
v 1.41096000 0.57192000 0.49915000
v 0.60575000 0.57192000 -0.43430000
v 1.41096000 0.57192000 -0.43430000
v 1.41096000 0.57192000 0.10698000
v 0.60575000 0.57192000 0.10698000
v 1.41096000 8.4600000e-3 0.11569000
v 0.60575000 8.4600000e-3 0.11569000
v 0.90227000 0.57192000 -0.43430000
v 1.11443000 0.57192000 -0.43430000
v 0.90227000 0.57192000 0.10698000
v 1.11443000 0.57192000 0.10698000
v 0.90227000 0.57192000 -0.27172000
v 0.90227000 0.57192000 -5.5610000e-2
v 1.11443000 0.57192000 -0.27172000
v 1.11443000 0.57192000 -5.5610000e-2
v 0.86003000 0.57192000 -0.16366000
v 1.15668000 0.57192000 -0.16366000
v 1.00835000 0.57192000 -0.31475000
v 1.00835000 0.57192000 -1.2580000e-2
v 0.86003000 0.31319000 -0.16366000
v 0.90227000 0.31319000 -5.5610000e-2
v 1.00835000 0.31319000 -1.2580000e-2
v 1.11443000 0.31319000 -5.5610000e-2
v 1.15668000 0.31319000 -0.16366000
v 1.11443000 0.31319000 -0.27172000
v 1.00835000 0.31319000 -0.31475000
v 0.90227000 0.31319000 -0.27172000
vt 1.6897822e-2 0.94376154
vt 1.6897822e-2 0.70276235
vt 1.6897822e-2 0.60829081
vt 1.9481074e-2 0.36318363
vt 1.9633270e-2 0.53571249
vt 3.3085711e-2 0.60829081
vt 3.3085711e-2 0.94376154
vt 3.6684262e-2 0.33382670
vt 3.6877816e-2 0.55324028
vt 5.0591398e-2 0.31989393
vt 5.0603651e-2 0.33381332
vt 5.0796800e-2 0.55322853
vt 5.0809052e-2 0.56714752
vt 5.6189443e-2 4.8665906e-2
vt 5.6189443e-2 0.23390354
vt 5.6191327e-2 0.14315154
vt 6.7794639e-2 0.29053703
vt 6.8053566e-2 0.58467533
vt 8.3982522e-2 0.29052278
vt 9.8822803e-2 0.18852766
vt 0.10590389 0.17041149
vt 0.10590607 0.23390413
vt 0.10590665 0.20664704
vt 0.10590838 0.14315119
vt 0.12368985 0.21385950
vt 0.12369198 0.16319766
vt 0.14147424 0.23390609
vt 0.14147628 0.17041117
vt 0.14147821 0.14315272
vt 0.14147874 0.20664553
vt 0.14856117 0.18852854
vt 0.19119152 0.14315466
vt 0.19119495 0.23390789
vt 0.19119639 4.8670216e-2
vt 0.20046395 0.98560358
vt 0.20046395 0.60829081
vt 0.21898661 0.29040394
vt 0.23190104 0.23633779
vt 0.23517449 0.29038969
vt 0.23543342 0.58452799
vt 0.23898325 0.21822148
vt 0.23898384 0.25445554
vt 0.25242772 0.31971626
vt 0.25243997 0.33363565
vt 0.25263312 0.55305086
vt 0.25264537 0.56696984
vt 0.25676927 0.21100681
vt 0.25677007 0.26166962
vt 0.26635936 0.33362452
vt 0.26655210 0.55303810
vt 0.27455470 0.21822126
vt 0.27455527 0.25445462
vt 0.28163835 0.23633700
vt 0.28361253 0.36295112
vt 0.28376409 0.53547998
vt 0.30207825 3.0194678e-2
vt 0.30207825 0.19757292
vt 0.30920670 0.22538488
vt 0.30920709 0.26876449
vt 0.31826613 9.4486835e-2
vt 0.31826613 3.0194678e-2
vt 0.32840001 0.22538471
vt 0.32840038 0.26876432
vt 0.34459855 0.37586316
vt 0.34459855 0.53893011
vt 0.34785124 0.22538453
vt 0.34785152 0.26876414
vt 0.36730405 0.22538440
vt 0.36730420 0.26876399
vt 0.36784387 0.98560358
vt 0.36784387 0.60829081
vt 0.38649739 0.22538439
vt 0.38649742 0.26876391
vt 0.40569061 0.26876390
vt 0.40569071 0.22538445
vt 0.42514378 0.26876400
vt 0.42514400 0.22538457
vt 0.44459541 0.26876415
vt 0.44459572 0.22538472
vt 0.45327028 9.4486835e-2
vt 0.45327028 3.0194678e-2
vt 0.46378863 0.26876429
vt 0.46378896 0.22538488
vt 0.46945816 3.0194678e-2
vt 0.46945816 0.19757292
vt 0.47960269 0.37586316
vt 0.47960269 0.53893011
vt 0.52842758 3.2917501e-2
vt 0.52842758 0.12738905
vt 0.52842758 0.36838823
vt 0.53522211 0.94376154
vt 0.53522211 0.60829081
vt 0.55141000 0.60829081
vt 0.55141000 0.70276235
vt 0.55141000 0.94376154
vt 0.59271973 3.2917501e-2
vt 0.59418008 0.12738905
vt 0.68493286 0.12738905
vt 0.68785523 0.40264687
vt 0.73464557 0.12686125
vt 0.77021500 0.12648362
vt 0.81992939 0.12595581
vt 0.82285176 0.40121363
vt 0.91011597 2.9547753e-2
vt 0.91066171 0.12402901
vt 0.97439364 2.8182747e-2
vt 0.97639939 0.12263300
vt 0.98151612 0.36357786
vn 0.40824829 -0.81649658 -0.40824829
vn 0.37877195 -0.73494664 -0.56248133
vn -0.37877195 -0.73494664 -0.56248133
vn -0.40824829 -0.81649658 -0.40824829
vn -0.57735027 -0.57735027 0.57735027
vn 0.57735027 -0.57735027 0.57735027
vn 0.44587400 -0.86514298 0.22961706
vn -0.44587400 -0.86514298 0.22961706
vn -0.40824020 -0.69313368 -0.59405861
vn -0.40823118 -0.89113898 0.19803692
vn 0.40823118 -0.89113898 0.19803692
vn 0.40824020 -0.69313368 -0.59405861
vn 0.57735723 0.70011887 -0.42010973
vn 0.57736579 0.42006571 0.70013823
vn -0.57736579 0.42006571 0.70013823
vn -0.57735723 0.70011887 -0.42010973
vn -0.44308137 -0.86304781 0.24254357
vn 0.44308137 -0.86304781 0.24254357
vn 0.57735027 -0.57735027 0.57735027
vn -0.57735027 -0.57735027 0.57735027
vn 0.62511157 -0.60452410 0.49374703
vn -0.62511157 -0.60452410 0.49374703
vn 0.89442719 0.0000000e+0 0.44721360
vn -0.89442719 -6.8500997e-17 0.44721360
vn 0.57531795 0.58142567 0.57528553
vn -0.57531795 0.58142567 0.57528553
vn -0.81440135 0.41349446 0.40715203
vn 0.81440135 0.41349446 0.40715203
vn -0.41036801 -0.81439328 0.41031899
vn 0.41036801 -0.81439328 0.41031899
vn 0.0000000e+0 0.89538073 0.44530142
vn 0.0000000e+0 0.89538073 0.44530142
vn 0.0000000e+0 0.89581805 0.44442099
vn 0.0000000e+0 0.89581805 0.44442099
vn 0.48137539 0.73646349 0.47528861
vn 0.48136969 0.73646122 -0.47529790
vn -0.48136082 0.73645767 0.47531238
vn -0.48135512 0.73645540 -0.47532167
vn 0.88106477 0.47299563 -1.3824628e-5
vn -0.88105859 0.47300715 -1.3826936e-5
vn -3.1631741e-16 0.47485565 0.88006370
vn -3.1631741e-16 0.47485565 -0.88006370
vn 0.88106477 0.47299563 -1.3824628e-5
vn 0.62498752 0.47809311 -0.61710419
vn -3.1631741e-16 0.47485565 -0.88006370
vn -0.62496521 0.47808674 -0.61713171
vn -0.88105859 0.47300715 -1.3826936e-5
vn -0.62497394 0.47808923 0.61712095
vn -3.1631741e-16 0.47485565 0.88006370
vn 0.62499624 0.47809560 0.61709343
g highpoly_toilet_highpoly_toilet_auv
usemtl highpoly_toilet_auv
f 55/140/55 58/175/58 57/174/57 56/139/56
f 55/161/55 83/164/83 84/184/84 58/189/58
f 56/139/56 61/111/61 60/110/60 55/140/55
f 56/159/56 66/154/66 65/153/65 61/158/61
f 57/122/57 63/117/63 66/150/66 56/144/56
f 58/175/58 59/196/59 62/195/62 57/174/57
f 58/189/58 84/184/84 73/185/73 59/188/59
f 59/196/59 73/197/73 77/198/77 72/199/72 62/195/62
f 60/160/60 74/165/74 83/164/83 55/161/55
f 61/111/61 71/105/71 78/106/78 74/107/74 60/110/60
f 62/108/62 64/112/64 63/113/63 57/109/57
f 63/117/63 70/116/70 67/149/67 66/150/66
f 64/112/64 69/115/69 70/116/70 63/113/63
f 65/147/65 64/114/64 62/121/62 72/123/72 71/141/71 61/143/61
f 65/147/65 68/148/68 69/115/69 64/114/64
f 66/154/66 67/149/67 68/148/68 65/153/65
f 67/149/67 70/116/70 69/115/69 68/148/68
f 72/190/72 75/191/75 76/169/76 71/168/71
f 72/194/72 77/193/77 82/201/82 79/202/79 75/203/75
f 73/192/73 84/200/84 82/201/82 77/193/77
f 75/203/75 79/202/79 85/204/85 86/205/86 80/206/80 76/207/76
f 76/207/76 80/206/80 81/209/81 78/211/78 71/212/71
f 78/211/78 81/209/81 83/208/83 74/210/74
f 80/137/80 86/131/86 91/134/91 94/135/94 92/132/92 88/133/88 81/136/81
f 81/136/81 88/133/88 87/128/87 82/120/82 84/118/84 83/138/83
f 82/120/82 87/128/87 90/125/90 93/124/93 89/127/89 85/126/85 79/119/79
f 85/126/85 89/127/89 95/129/95 91/134/91 86/131/86
f 88/133/88 92/132/92 96/130/96 90/125/90 87/128/87
f 89/173/89 104/172/104 103/176/103 95/177/95
f 90/167/90 98/166/98 97/170/97 93/171/93
f 91/178/91 102/179/102 101/181/101 94/180/94
f 92/182/92 100/183/100 99/187/99 96/186/96
f 93/171/93 97/170/97 104/172/104 89/173/89
f 94/180/94 101/181/101 100/183/100 92/182/92
f 95/177/95 103/176/103 102/179/102 91/178/91
f 96/163/96 99/162/99 98/166/98 90/167/90
f 98/145/98 99/151/99 100/155/100 101/157/101 102/156/102 103/152/103 104/146/104 97/142/97
o lowpoly_toilet
#32 vertices, 29 faces
v -1.51239000 8.4600000e-3 -0.49915000
v -1.51239000 2.25888000 -0.49915000
v -2.51069000 2.25888000 -0.49915000
v -2.51069000 8.4600000e-3 -0.49915000
v -2.51069000 8.4600000e-3 0.49915000
v -1.51239000 8.4600000e-3 0.49915000
v -1.51239000 2.00932000 0.49915000
v -2.51069000 2.00932000 0.49915000
v -2.61345000 2.28425000 -0.60066000
v -2.61345000 1.96688000 0.66893000
v -1.40963000 1.96688000 0.66893000
v -1.40963000 2.28425000 -0.60066000
v -1.40963000 2.36479000 -0.58053000
v -1.40963000 2.04742000 0.68907000
v -2.61345000 2.04742000 0.68907000
v -2.61345000 2.36479000 -0.58053000
v -1.62255000 2.00932000 0.49915000
v -2.40053000 2.00932000 0.49915000
v -2.40053000 8.4600000e-3 0.49915000
v -1.62255000 8.4600000e-3 0.49915000
v -2.40053000 0.14809000 0.49915000
v -1.62255000 0.26488000 0.49915000
v -1.62255000 8.4600000e-3 -0.38260000
v -1.62255000 0.26488000 -0.38260000
v -2.40053000 0.14809000 -0.38260000
v -2.40053000 8.4600000e-3 -0.38260000
v -1.62255000 1.89931000 0.49915000
v -2.40053000 1.86464000 0.49915000
v -2.40053000 2.21365000 -0.41746000
v -2.40053000 1.86464000 -0.41746000
v -1.62255000 1.89931000 -0.41746000
v -1.62255000 2.21365000 -0.41746000
vt 1.5063935e-2 0.92512483
vt 1.5064220e-2 0.94355283
vt 1.5064858e-2 0.65133900
vt 1.5065125e-2 0.60838736
vt 1.9632597e-2 0.53576731
vt 1.9741967e-2 0.36339471
vt 3.3516930e-2 0.94355280
vt 3.3517894e-2 0.60838599
vt 3.6834941e-2 0.55330532
vt 3.6974033e-2 0.33409048
vt 5.0732468e-2 0.56722105
vt 5.0741317e-2 0.55331468
vt 5.0880815e-2 0.33409821
vt 5.0889665e-2 0.32019143
vt 6.7934780e-2 0.58475910
vt 6.8121785e-2 0.29088722
vt 8.6574834e-2 0.29089897
vt 0.20074329 0.98535770
vt 0.20074459 0.60838653
vt 0.21689531 0.29098190
vt 0.23516135 0.58486552
vt 0.23534835 0.29099364
vt 0.25238597 0.56734937
vt 0.25239482 0.55344300
vt 0.25253432 0.33422653
vt 0.25254317 0.32031975
vt 0.26630119 0.55345135
vt 0.26644110 0.33423650
vt 0.28352584 0.53593524
vt 0.28363585 0.36356264
vt 0.30169472 0.20012834
vt 0.30212008 3.7958214e-2
vt 0.31915448 3.2341601e-2
vt 0.31915448 0.18004475
vt 0.31974870 0.18084373
vt 0.31999692 3.7971030e-2
vt 0.34638134 0.37912313
vt 0.34638134 0.53643447
vt 0.36797000 0.98535799
vt 0.36797105 0.60838724
vt 0.45005568 2.6216702e-2
vt 0.45010126 0.17865888
vt 0.45093524 3.2341601e-2
vt 0.45093524 0.18004475
vt 0.46897876 0.19837277
vt 0.46908845 2.6243024e-2
vt 0.47670184 0.37912313
vt 0.47670184 0.53643447
vt 0.53519659 0.94355438
vt 0.53519780 0.60838759
vt 0.53593103 0.34233732
vt 0.53600106 0.36657276
vt 0.54014503 0.12995230
vt 0.54014503 0.15334192
vt 0.55364987 0.91931870
vt 0.55365077 0.63177723
vt 0.55365091 0.60838778
vt 0.55365091 0.94355601
vt 0.58844807 0.92066696
vt 0.58844807 0.58665858
vt 0.68784819 0.12995230
vt 0.68784819 0.15334192
vt 0.68947299 0.34189368
vt 0.68964191 0.40035658
vt 0.73982836 0.60938372
vt 0.73982836 0.92741309
vt 0.81375518 0.78067977
vt 0.81375518 0.62713717
vt 0.81816868 0.12995230
vt 0.81816868 0.17290557
vt 0.81980973 0.34732474
vt 0.81996186 0.39998004
vt 0.94420502 0.62713717
vt 0.94420502 0.78067977
vt 0.96587184 0.12995230
vt 0.96587184 0.17290557
vt 0.97335168 0.34688110
vt 0.97340493 0.36530895
vn 0.40824829 -0.81649658 -0.40824829
vn 0.37877195 -0.73494664 -0.56248133
vn -0.37877195 -0.73494664 -0.56248133
vn -0.40824829 -0.81649658 -0.40824829
vn -0.40824829 -0.40824829 0.81649658
vn 0.40824829 -0.40824829 0.81649658
vn 0.44587400 -0.86514298 0.22961706
vn -0.44587400 -0.86514298 0.22961706
vn -0.40824020 -0.69313368 -0.59405861
vn -0.40823118 -0.89113898 0.19803692
vn 0.40823118 -0.89113898 0.19803692
vn 0.40824020 -0.69313368 -0.59405861
vn 0.57735723 0.70011887 -0.42010973
vn 0.57736579 0.42006571 0.70013823
vn -0.57736579 0.42006571 0.70013823
vn -0.57735723 0.70011887 -0.42010973
vn -0.44371455 -0.86355372 0.23956706
vn 0.44371455 -0.86355372 0.23956706
vn 0.57735027 -0.57735027 0.57735027
vn -0.57735027 -0.57735027 0.57735027
vn 0.34169176 -0.29422586 0.89256814
vn -0.26028702 -0.30227775 0.91699445
vn -0.40824829 -0.81649658 0.40824829
vn -0.51793705 -0.60149309 0.60823291
vn 0.63250025 -0.54463687 0.55073961
vn 0.40824829 -0.81649658 0.40824829
vn -0.42329421 0.40485059 0.81050479
vn 0.39300006 0.41090381 0.82262325
vn 0.62440970 -0.60945058 0.48855144
vn 0.56001995 0.58553257 0.58611370
vn -0.59429897 0.56840439 0.56896852
vn -0.62440970 -0.60945058 0.48855144
g lowpoly_toilet_lowpoly_toilet_auv
usemtl lowpoly_toilet_auv
f 105/231/105 108/252/108 107/251/107 106/230/106
f 105/243/105 127/247/127 130/254/130 108/257/108
f 106/230/106 111/219/111 110/220/110 105/231/105
f 106/241/106 116/239/116 115/240/115 111/242/111
f 107/227/107 113/223/113 116/235/116 106/233/106
f 108/252/108 109/262/109 112/261/112 107/251/107
f 108/257/108 130/254/130 123/253/123 109/258/109
f 109/262/109 125/268/125 132/267/132 122/270/122 112/261/112
f 110/244/110 124/248/124 127/247/127 105/243/105
f 110/220/110 126/215/126 124/216/124
f 111/219/111 121/214/121 131/213/131 126/215/126 110/220/110
f 112/218/112 114/222/114 113/221/113 107/217/107
f 113/223/113 120/224/120 117/236/117 116/235/116
f 114/222/114 119/225/119 120/224/120 113/221/113
f 115/238/115 114/226/114 112/228/112 122/229/122 121/232/121 111/234/111
f 115/238/115 118/237/118 119/225/119 114/226/114
f 116/239/116 117/236/117 118/237/118 115/240/115
f 117/236/117 120/224/120 119/225/119 118/237/118
f 121/290/121 136/284/136 135/283/135 131/289/131
f 122/259/122 133/260/133 136/250/136 121/249/121
f 123/269/123 125/268/125 109/262/109
f 123/265/123 130/273/130 129/274/129 125/266/125
f 125/255/125 129/256/129 128/246/128 126/245/126
f 126/288/126 128/282/128 127/281/127 124/287/124
f 126/277/126 131/278/131 132/271/132 125/272/125
f 128/282/128 129/274/129 130/273/130 127/281/127
f 131/285/131 135/286/135 134/279/134 132/280/132
f 132/263/132 134/275/134 133/276/133 122/264/122
f 134/275/134 135/283/135 136/284/136 133/276/133
